<svg width="948" height="948" viewBox="0 0 948 948" fill="none" xmlns="http://www.w3.org/2000/svg">
<path d="M814.934 549.127C813.37 542.743 743.235 461.877 735.152 455.493C721.594 444.549 705.429 441.205 689.264 445.157C662.67 451.541 649.634 493.798 659.281 522.071C663.713 535.143 724.984 609.017 736.456 618.441C742.974 623.609 748.971 626.953 757.314 623.913C760.964 622.697 810.241 565.848 812.588 560.984C814.934 556.424 815.977 554.6 814.674 549.127H814.934ZM600.617 512.647C585.755 499.27 575.587 493.798 556.033 497.75C541.693 500.79 526.31 515.991 521.095 531.495C512.23 557.336 518.488 574.664 532.567 595.033C550.557 620.873 624.604 709.643 645.983 726.972C653.023 732.748 656.412 735.484 665.277 730.924C670.752 728.188 722.637 666.778 723.419 661.914C723.941 659.786 723.68 658.266 722.637 656.442L600.617 512.647ZM553.686 672.858C538.825 659.786 527.092 655.226 507.798 659.482C477.814 665.866 464.257 707.211 475.989 738.524C480.422 750.38 541.693 823.95 552.382 832.767C558.901 837.935 564.897 841.279 573.241 838.239C576.891 837.023 626.168 779.869 628.515 775.309C630.861 770.445 631.383 769.837 630.079 764.061C628.254 757.373 562.29 680.459 553.686 672.858ZM348.755 166.078C393.078 203.471 438.445 280.993 483.29 323.25C514.577 353.043 535.174 346.354 563.333 317.17C571.416 308.657 590.709 290.417 583.409 277.953C474.164 169.422 392.557 -12.6787 228.299 0.697675C36.4037 16.2021 -66.8442 271.872 48.1364 454.581C54.6546 464.917 96.1102 519.335 102.889 521.463C106.8 522.679 110.189 522.071 113.057 519.031L352.666 239.04C362.834 213.199 306.778 194.655 323.464 167.598C331.025 155.134 339.629 157.87 348.755 165.774V166.078ZM473.121 818.478C440.27 819.39 419.412 855.263 427.233 892.048C430.362 906.64 462.171 948.897 475.207 947.985C483.811 947.377 539.867 882.32 539.867 875.024C526.31 851.311 499.716 818.174 473.121 818.782V818.478Z" fill="white"/>
<path d="M890.806 468.565C884.548 477.382 854.825 514.47 848.568 518.727C844.657 521.463 843.093 522.679 838.4 521.159C829.535 518.119 769.568 437.861 753.663 423.876C716.901 391.955 665.016 400.468 638.161 443.941C631.122 455.189 629.818 467.957 621.475 477.686C607.135 475.254 596.184 461.877 581.584 459.749C502.323 446.981 457.738 542.439 503.105 616.009C495.544 626.649 482.768 627.865 472.6 636.682C449.134 656.746 437.401 688.363 439.227 722.412C440.269 740.956 449.395 753.724 448.613 770.445C421.758 793.245 383.692 859.215 355.794 873.807C309.124 897.52 264.8 834.286 301.823 779.869C339.368 724.844 399.335 674.682 439.227 619.961C452.524 599.289 431.405 577.704 415.24 595.032L228.559 812.398C180.064 852.831 123.486 784.733 161.031 730.62L394.121 458.533C403.507 436.341 390.731 420.836 371.177 431.78L187.364 646.41C143.301 694.747 77.5983 631.817 112.796 571.928L377.174 264.576L389.949 267.008C438.444 315.954 483.029 414.452 559.161 368.243C571.676 360.643 613.392 315.041 621.475 301.057C625.646 293.761 629.818 286.465 625.907 277.953L502.844 132.029C499.976 128.685 499.715 124.733 500.758 120.173C501.54 116.829 535.174 77.9156 540.389 72.7474C582.105 31.0984 634.511 4.64974 689.264 0.697641C901.756 -14.5027 1027.95 275.521 890.806 468.869V468.565Z" fill="white"/>
</svg>
